<svg xmlns="http://www.w3.org/2000/svg" width="1000" height="600" viewBox="0 0 1000 600"><rect width="1000" height="600" fill="white"/><text x="500" y="42" text-anchor="middle" font-family="Arial" font-size="27" font-weight="700">Ejemplo visual de mapa ΔNDVI</text><text x="500" y="70" text-anchor="middle" font-family="Arial" font-size="15">ILUSTRATIVO — no son resultados medidos de la cantera</text><rect x="100" y="105" width="650" height="400" fill="#f2f2f2" stroke="#222"/><path d="M120 160 C230 90 300 180 390 140 S560 100 720 160 L720 260 C620 220 550 300 460 250 S260 300 120 240 Z" fill="#c7e9c0"/><path d="M150 330 C240 270 320 360 400 300 S560 270 690 340 L680 465 C560 430 500 500 390 440 S230 470 150 420 Z" fill="#f4a582"/><path d="M330 185 C390 155 445 195 500 175 L535 245 C470 275 410 245 350 270 Z" fill="#1a9850"/><path d="M505 330 C570 300 630 320 700 300 L720 390 C640 420 590 390 520 420 Z" fill="#d73027"/><g font-family="Arial" font-size="15"><rect x="795" y="165" width="25" height="25" fill="#1a9850"/><text x="835" y="183">Aumento NDVI</text><rect x="795" y="210" width="25" height="25" fill="#c7e9c0"/><text x="835" y="228">Aumento suave</text><rect x="795" y="255" width="25" height="25" fill="#f2f2f2" stroke="#999"/><text x="835" y="273">Estable</text><rect x="795" y="300" width="25" height="25" fill="#f4a582"/><text x="835" y="318">Descenso suave</text><rect x="795" y="345" width="25" height="25" fill="#d73027"/><text x="835" y="363">Descenso NDVI</text></g><text x="500" y="555" text-anchor="middle" font-family="Arial" font-size="14">El mapa real se genera con: NDVI periodo 2 − NDVI periodo 1</text></svg>